<?xml version="1.0" encoding="utf-8"?>
<!-- Generator: Adobe Illustrator 21.0.0, SVG Export Plug-In . SVG Version: 6.00 Build 0)  -->
<svg version="1.1" id="logo" xmlns="http://www.w3.org/2000/svg" xmlns:xlink="http://www.w3.org/1999/xlink" x="0px" y="0px"
	 viewBox="0 0 300 300" style="enable-background:new 0 0 300 300;" xml:space="preserve">
<path d="M32.2,192.3c0.1,5.7,0.8,11.1,3.2,16.1c2.4,4.9,5.8,8.8,11,10.8c2.3,0.9,4.8,1.5,7.2,2.2c13.3,3.9,26.6,7.9,39.9,11.8
	c18,5.3,36.1,10.7,54.1,16c6.7,2,13.4,3.9,20,5.9c0.6,0.2,0.9,0,1.3-0.4c11.5-13.8,23-27.7,34.4-41.5c8.8-10.6,17.7-21.3,26.5-31.9
	c11.2-13.4,22.3-26.9,33.5-40.3c0.7-0.8,1.7-1.6,2-2.6c0.2-0.9-0.4-2-0.6-3.1c-2.1-9.6-0.8-18.8,3-27.7c1.9-4.5,6.6-7,11.4-6.2
	c4.6,0.7,8.3,4.5,8.9,9.2c0.2,1.8,0,3.7-0.7,5.4c-1.8,4.3-2.5,8.8-1.9,13.4c0.3,2.4,0.8,4.8,1.7,7c1.6,4.2,1.1,8-1.7,11.5
	c-4.2,5.1-8.5,10.2-12.7,15.3c-7.6,9.2-15.2,18.3-22.8,27.5c-8.9,10.7-17.8,21.4-26.7,32.1c-7.6,9.2-15.3,18.4-22.9,27.6
	c-6.7,8.1-13.3,16.1-20.1,24.1c-3,3.5-6.8,4.7-11.2,3.5c-10.8-3.1-21.6-6.4-32.4-9.6c-18.3-5.4-36.6-10.9-55-16.3
	c-13.7-4.1-27.5-8.1-41.2-12.3c-2.1-0.6-4-1.9-5.9-3.2c-10.9-7.4-18.4-17.2-22-29.9c-1.6-5.9-2.1-11.9-1.8-18
	c0.3-5,1.2-9.9,2.8-14.6c1.3-3.9,2.3-7.9,3.6-11.7c1.5-4.3,3.5-8.5,6.3-12.1c2.1-2.7,4.5-5.2,6.7-7.8c6.6-7.4,13.3-14.8,20-22.3
	c11.1-12.3,22.1-24.6,33.2-37c10.1-11.2,20.1-22.5,30.2-33.7c7.3-8.1,14.6-16.2,21.8-24.4c3.5-3.9,7.8-4.6,12.6-3.6
	c13.9,3.1,27.8,6.2,41.7,9.3c13.7,3.1,27.4,6.1,41.1,9.2c12.5,2.8,25,5.6,37.5,8.4c4,0.9,8,1.8,11.9,2.7c5,1.2,8.5,5.2,8.9,10.3
	c0.2,3-0.8,5.7-2.8,8c-9,10.4-18,20.8-27,31.2c-8.6,9.9-17.2,19.9-25.8,29.8c-9.9,11.4-19.8,22.8-29.7,34.2
	c-9.4,10.8-18.7,21.6-28.1,32.4c-1.5,1.8-3,3.6-4.8,5.2c-3,2.7-6.7,3.4-10.5,2.3c-10.2-2.9-20.4-5.9-30.6-8.8
	c-14.6-4.2-29.3-8.4-43.9-12.6c-12.1-3.5-24.3-7-36.4-10.5c-7.7-1.2-13.1,1.1-15.7,8.1C32.5,184.7,32.3,188.6,32.2,192.3z
	 M209.6,104.5c0.9-0.1,1.8-0.1,2.6-0.3c2.8-0.5,5.4-1.5,7.2-3.9c1.3-1.7,2.7-3.2,4-4.8c1.4-1.7,2.9-3.4,4.2-5.1
	c1.4-1.8,1.1-3.9-0.9-5.1c-0.9-0.6-1.9-1-2.9-1.3c-6.4-1.6-12.9-3.2-19.3-4.8c-19.8-4.8-39.6-9.6-59.4-14.5
	c-2.4-0.6-4.7-0.9-7.1-0.5c-2.4,0.4-4.8,1-6.5,2.9c-3,3.5-6,7-8.9,10.6c-1.3,1.6-1.2,3.7,0.4,5c0.9,0.8,2.1,1.4,3.3,1.7
	c6.2,1.6,12.4,3.1,18.6,4.6c18.8,4.6,37.6,9.2,56.4,13.8C204.2,103.6,206.8,104.5,209.6,104.5z"/>
</svg>
