<?xml version="1.0" encoding="iso-8859-1"?>
<!-- Generator: Adobe Illustrator 19.0.0, SVG Export Plug-In . SVG Version: 6.00 Build 0)  -->
<svg version="1.1" id="star" xmlns="http://www.w3.org/2000/svg" xmlns:xlink="http://www.w3.org/1999/xlink" x="0px" y="0px"
	 viewBox="0 0 512.001 512.001" style="enable-background:new 0 0 512.001 512.001;" xml:space="preserve">
<g>
	<g>
		<path d="M511.269,197.142c-1.774-5.434-6.461-9.389-12.116-10.21l-159.028-22.969L269.447,20.775
			c-5.039-10.254-21.855-10.254-26.895,0l-70.679,143.188L12.846,186.932c-5.654,0.82-10.342,4.775-12.114,10.21
			c-1.758,5.42-0.293,11.382,3.794,15.366l115.36,111.475L92.889,481.38c-0.967,5.625,1.348,11.309,5.962,14.663
			c4.649,3.376,10.763,3.798,15.806,1.143L256,422.874l141.343,74.312c5.068,2.666,11.177,2.227,15.806-1.143
			c4.614-3.354,6.929-9.038,5.962-14.663l-26.997-157.397l115.361-111.475C511.562,208.524,513.027,202.562,511.269,197.142z"/>
	</g>
</g>

</svg>
