<svg id="Слой_1" data-name="Слой 1" xmlns="http://www.w3.org/2000/svg" viewBox="0 0 300 300"><title>Монтажная область 1</title><path d="M32.18,192.3c.08,5.72.78,11.08,3.18,16.09s5.85,8.82,11,10.85c2.33.91,4.78,1.49,7.19,2.2l39.87,11.82,54.14,16c6.68,2,13.36,3.92,20,5.92a1,1,0,0,0,1.25-.42Q186.1,234,203.34,213.27l26.51-31.94L263.34,141c.7-.84,1.72-1.61,2-2.57s-.35-2-.57-3.07a44.93,44.93,0,0,1,3-27.72,10.58,10.58,0,0,1,11.43-6.22,10.78,10.78,0,0,1,8.9,9.24,10.54,10.54,0,0,1-.67,5.4,26.1,26.1,0,0,0-1.91,13.45,32.19,32.19,0,0,0,1.65,7c1.59,4.21,1.14,8-1.68,11.47-4.18,5.13-8.45,10.19-12.68,15.29L250,190.81l-26.69,32.13-22.93,27.64c-6.68,8.05-13.34,16.13-20.07,24.14A10.15,10.15,0,0,1,169,278.19c-10.82-3.13-21.61-6.38-32.41-9.59l-55-16.32c-13.74-4.08-27.5-8.11-41.2-12.31a23,23,0,0,1-5.89-3.18c-10.86-7.36-18.41-17.19-22-29.91a54.22,54.22,0,0,1-1.77-18,57.16,57.16,0,0,1,2.83-14.65c1.29-3.88,2.27-7.87,3.65-11.72a45,45,0,0,1,6.31-12.14c2.07-2.73,4.46-5.2,6.75-7.76q10-11.14,20-22.26l33.18-37,30.2-33.69q10.93-12.19,21.85-24.38c3.47-3.89,7.8-4.63,12.6-3.56Q169,26.39,189.85,31.1L231,40.3l37.49,8.37c4,.89,8,1.76,11.92,2.67a11.29,11.29,0,0,1,8.9,10.32,10.79,10.79,0,0,1-2.78,8q-13.49,15.59-27,31.16l-25.85,29.83-29.7,34.24q-14.06,16.22-28.12,32.44a57.79,57.79,0,0,1-4.79,5.21,10.61,10.61,0,0,1-10.52,2.26c-10.21-2.9-20.41-5.86-30.61-8.8L86,183.4,49.61,172.93C41.87,171.77,36.46,174,33.9,181A34.44,34.44,0,0,0,32.18,192.3ZM209.6,104.5c.88-.09,1.77-.12,2.64-.27a10.82,10.82,0,0,0,7.2-3.92c1.28-1.66,2.7-3.21,4-4.82s2.88-3.37,4.24-5.12a3.25,3.25,0,0,0-.86-5.11A10,10,0,0,0,224,84c-6.43-1.63-12.88-3.2-19.33-4.77q-29.7-7.23-59.4-14.47a17.34,17.34,0,0,0-7.1-.46c-2.42.41-4.83,1-6.51,2.91-3,3.46-6,7-8.86,10.61a3.38,3.38,0,0,0,.43,5,9,9,0,0,0,3.33,1.71c6.19,1.61,12.41,3.11,18.63,4.63q28.19,6.9,56.39,13.77C204.19,103.56,206.8,104.49,209.6,104.5Z"/></svg>